<?xml version="1.0" encoding="UTF-8" standalone="no" ?>
<!DOCTYPE svg PUBLIC "-//W3C//DTD SVG 1.1//EN" "http://www.w3.org/Graphics/SVG/1.1/DTD/svg11.dtd">
<svg xmlns="http://www.w3.org/2000/svg" xmlns:xlink="http://www.w3.org/1999/xlink" version="1.1" width="1080" height="1080" viewBox="0 0 1080 1080" xml:space="preserve">
<desc>Created with Fabric.js 5.2.4</desc>
<defs>
</defs>
<g transform="matrix(1 0 0 1 540 540)" id="3fd7c16f-9b8a-46eb-8065-a96ad840985d"  >
<rect style="stroke: none; stroke-width: 1; stroke-dasharray: none; stroke-linecap: butt; stroke-dashoffset: 0; stroke-linejoin: miter; stroke-miterlimit: 4; fill255,255,255); fill-rule: nonzero; opacity: 1; visibility: hidden;" vector-effect="non-scaling-stroke"  x="-540" y="-540" rx="0" ry="0" width="1080" height="1080" />
</g>
<g transform="matrix(1 0 0 1 540 540)" id="feba11a6-915a-4655-a999-3fc94c253934"  >
</g>
<g transform="matrix(2.7 0 0 2.7 540 540)"  >
<g style=""   >
		<g transform="matrix(1 0 0 1 -176.2 8.85)"  >
<path style="stroke: none; stroke-width: 1; stroke-dasharray: none; stroke-linecap: butt; stroke-dashoffset: 0; stroke-linejoin: miter; stroke-miterlimit: 4; fill: rgb(255,255,255); fill-rule: nonzero; opacity: 1;" vector-effect="non-scaling-stroke"  transform=" translate(-23.8, -33.85)" d="M 37.5 30.5 L 10.9 30.5 L 10.9 23.9 L 45.199999999999996 23.9 C 44.3 21.099999999999998 41.4 18.5 36.3 18.5 L 11.4 18.5 C 5.7 18.5 2.4000000000000004 20.6 2.4000000000000004 25.2 L 2.4000000000000004 30.1 C 2.4000000000000004 34.1 5.800000000000001 36.4 10.8 36.4 L 37.7 36.4 L 37.7 43.4 L 1.5 43.4 C 2.4 47.199999999999996 5.3 49.199999999999996 10.5 49.199999999999996 L 37.6 49.199999999999996 C 43.300000000000004 49.199999999999996 46.1 46.99999999999999 46.1 42.3 L 46.1 37.4 C 46.1 33.1 42.8 30.8 37.5 30.5 z" stroke-linecap="round" />
</g>
		<g transform="matrix(1 0 0 1 -119.05 8.95)"  >
<path style="stroke: none; stroke-width: 1; stroke-dasharray: none; stroke-linecap: butt; stroke-dashoffset: 0; stroke-linejoin: miter; stroke-miterlimit: 4; fill: rgb(255,255,255); fill-rule: nonzero; opacity: 1;" vector-effect="non-scaling-stroke"  transform=" translate(-80.95, -33.95)" d="M 91.8 18.6 L 59 18.6 L 59 49.3 L 68.3 49.3 L 68.3 37.5 L 92.5 37.5 C 99.2 37.5 102.9 35.2 102.9 29.8 L 102.9 26.400000000000002 C 102.8 21.4 98.6 18.6 91.8 18.6 z M 94.8 28.4 C 94.8 30.599999999999998 94.39999999999999 31.799999999999997 90.8 31.799999999999997 L 68.3 31.799999999999997 L 68.39999999999999 23.799999999999997 L 90.39999999999999 23.799999999999997 C 94.39999999999999 23.799999999999997 94.89999999999999 24.999999999999996 94.89999999999999 27.099999999999998 L 94.89999999999999 28.4 z" stroke-linecap="round" />
</g>
		<g transform="matrix(1 0 0 1 -68.65 8.3)"  >
<polygon style="stroke: none; stroke-width: 1; stroke-dasharray: none; stroke-linecap: butt; stroke-dashoffset: 0; stroke-linejoin: miter; stroke-miterlimit: 4; fill: rgb(255,255,255); fill-rule: nonzero; opacity: 1;" vector-effect="non-scaling-stroke"  points="-1.45,-16 -7.05,-9.1 2.45,4 -17.35,4 -22.25,9.2 6.35,9.2 11.25,16 22.25,16 " />
</g>
		<g transform="matrix(1 0 0 1 -15.9 8.8)"  >
<path style="stroke: none; stroke-width: 1; stroke-dasharray: none; stroke-linecap: butt; stroke-dashoffset: 0; stroke-linejoin: miter; stroke-miterlimit: 4; fill: rgb(255,255,255); fill-rule: nonzero; opacity: 1;" vector-effect="non-scaling-stroke"  transform=" translate(-184.1, -33.8)" d="M 171.4 23.9 L 206.2 23.9 C 205.29999999999998 20.299999999999997 201.79999999999998 18.5 196.79999999999998 18.5 L 170.79999999999998 18.5 C 166.29999999999998 18.5 161.99999999999997 20.3 161.99999999999997 25.2 L 161.99999999999997 42.4 C 161.99999999999997 47.3 166.29999999999998 49.1 170.79999999999998 49.1 L 197.1 49.1 C 203.1 49.1 205.2 47.4 206.2 43.300000000000004 L 171.39999999999998 43.300000000000004 L 171.39999999999998 23.9 z" stroke-linecap="round" />
</g>
		<g transform="matrix(1 0 0 1 39.65 14.1)"  >
<polygon style="stroke: none; stroke-width: 1; stroke-dasharray: none; stroke-linecap: butt; stroke-dashoffset: 0; stroke-linejoin: miter; stroke-miterlimit: 4; fill: rgb(255,255,255); fill-rule: nonzero; opacity: 1;" vector-effect="non-scaling-stroke"  points="-11.35,4.4 -11.35,-5 7.35,-5 7.35,-10.2 -20.75,-10.2 -20.75,10.2 20.75,10.2 20.75,4.4 " />
</g>
		<g transform="matrix(1 0 0 1 40.85 -3.7)"  >
<rect style="stroke: none; stroke-width: 1; stroke-dasharray: none; stroke-linecap: butt; stroke-dashoffset: 0; stroke-linejoin: miter; stroke-miterlimit: 4; fill: rgb(255,255,255); fill-rule: nonzero; opacity: 1;" vector-effect="non-scaling-stroke"  x="-20.95" y="-2.7" rx="0" ry="0" width="41.9" height="5.4" />
</g>
		<g transform="matrix(1 0 0 1 85.6 -0.1)"  >
<path style="stroke: none; stroke-width: 1; stroke-dasharray: none; stroke-linecap: butt; stroke-dashoffset: 0; stroke-linejoin: miter; stroke-miterlimit: 4; fill: rgb(255,255,255); fill-rule: nonzero; opacity: 1;" vector-effect="non-scaling-stroke"  transform=" translate(-285.6, -24.9)" d="M 287.6 18.6 L 273 18.6 L 290.2 31.200000000000003 C 292.7 29.500000000000004 295.59999999999997 27.700000000000003 298.2 26.200000000000003 L 287.6 18.6 z" stroke-linecap="round" />
</g>
		<g transform="matrix(1 0 0 1 115.25 16.75)"  >
<path style="stroke: none; stroke-width: 1; stroke-dasharray: none; stroke-linecap: butt; stroke-dashoffset: 0; stroke-linejoin: miter; stroke-miterlimit: 4; fill: rgb(255,255,255); fill-rule: nonzero; opacity: 1;" vector-effect="non-scaling-stroke"  transform=" translate(-315.25, -41.75)" d="M 308.8 34.3 C 306.3 36 303.8 37.9 301.40000000000003 39.699999999999996 L 314.40000000000003 49.199999999999996 L 329.1 49.199999999999996 L 308.8 34.3 z" stroke-linecap="round" />
</g>
		<g transform="matrix(1 0 0 1 135.5 -0.05)"  >
<path style="stroke: none; stroke-width: 1; stroke-dasharray: none; stroke-linecap: butt; stroke-dashoffset: 0; stroke-linejoin: miter; stroke-miterlimit: 4; fill: rgb(255,255,255); fill-rule: nonzero; opacity: 1;" vector-effect="non-scaling-stroke"  transform=" translate(-335.5, -24.95)" d="M 399 0.7 C 319 5.3 282 39.5 273.7 47.6 L 272 49.2 L 286.8 49.2 C 326.8 9.1 384.3 2 399 0.7 L 399 0.7 z" stroke-linecap="round" />
</g>
</g>
</g>
</svg>